PathFileType	4	(X/Y/Z)	C:\Users\Basilio\Documents\Thesis Gigler\squatting_fais\c3dfiles\077\SLS_front_pre2\markers_experimental.trc
DataRate	CameraRate	NumFrames	NumMarkers	Units	OrigDataRate	OrigDataStartFrame	OrigNumFrames
200.000000	200.000000	4	60	mm	200.000000	1815	2075
Frame#	Time	FHD			LBHD			RBHD			C7			T10			CLAV			LSHO			LUUPA			LMUPA			LDUPA			LLEP			LMEP			LRAD			LUL			LRFIN			RSHO			RUPA1			RMUPA			RDUPA			RLEP			RMEP			RUL			RUFIN			LASI			RASI			USACR			LSACR			RSACR			LTHI1			LTHI2			LTHI3			LTHI4			LLFC			LMFC			LTIB1			LTIB2			LTIB3			LTIB4			LLMAL			LHEE			LMT1			LMT2			LMT5			RTHI			RTHI2			RTHI3			RTHI4			RLFC			RMFC			RTIB1			RTIB2			RTIB3			RTIB4			RLMAL			RMMAL			RHEE			RMT1			RMT2			RMT5			RRAD			
		X1	Y1	Z1	X2	Y2	Z2	X3	Y3	Z3	X4	Y4	Z4	X5	Y5	Z5	X6	Y6	Z6	X7	Y7	Z7	X8	Y8	Z8	X9	Y9	Z9	X10	Y10	Z10	X11	Y11	Z11	X12	Y12	Z12	X13	Y13	Z13	X14	Y14	Z14	X15	Y15	Z15	X16	Y16	Z16	X17	Y17	Z17	X18	Y18	Z18	X19	Y19	Z19	X20	Y20	Z20	X21	Y21	Z21	X22	Y22	Z22	X23	Y23	Z23	X24	Y24	Z24	X25	Y25	Z25	X26	Y26	Z26	X27	Y27	Z27	X28	Y28	Z28	X29	Y29	Z29	X30	Y30	Z30	X31	Y31	Z31	X32	Y32	Z32	X33	Y33	Z33	X34	Y34	Z34	X35	Y35	Z35	X36	Y36	Z36	X37	Y37	Z37	X38	Y38	Z38	X39	Y39	Z39	X40	Y40	Z40	X41	Y41	Z41	X42	Y42	Z42	X43	Y43	Z43	X44	Y44	Z44	X45	Y45	Z45	X46	Y46	Z46	X47	Y47	Z47	X48	Y48	Z48	X49	Y49	Z49	X50	Y50	Z50	X51	Y51	Z51	X52	Y52	Z52	X53	Y53	Z53	X54	Y54	Z54	X55	Y55	Z55	X56	Y56	Z56	X57	Y57	Z57	X58	Y58	Z58	X59	Y59	Z59	X60	Y60	Z60	

1816	9.075000000000001	-189.8268432617188	1826.951782226563	-995.3320922851565	-349.0464172363282	1768.12255859375	-1081.008666992188	-368.0754089355469	1760.72607421875	-937.7137451171877	-431.1299743652345	1614.49169921875	-1024.427856445313	-451.2761535644532	1277.67041015625	-1013.676025390625	-271.5451660156251	1558.907470703125	-1017.43212890625	-293.1422119140626	1599.643432617188	-1188.686157226563	-121.3458786010742	1541.926147460938	-1280.096557617188	-93.43033599853517	1570.780517578125	-1250.865112304688	-53.13659286499025	1537.096435546875	-1281.31689453125	11.96086883544922	1542.663696289063	-1272.002319335938	12.82590866088868	1470.866943359375	-1245.318969726563	293.6571960449219	1559.089233398438	-1121.958862304688	304.7994689941407	1563.68115234375	-1201.030151367188	389.5573120117189	1584.504150390625	-1120.324584960938	-292.1432189941407	1599.468627929688	-857.157653808594	-137.5168151855469	1555.745239257813	-748.8578491210939	-110.4038543701172	1580.768432617188	-782.1973266601565	-67.51210021972658	1553.736938476563	-747.3570556640626	-1.598544836044312	1557.115112304688	-757.7592163085939	-0.06285429745912553	1483.01171875	-784.1568603515627	292.7585449218751	1582.197631835938	-798.2744140625002	371.2988891601563	1594.553466796875	-883.6871337890627	-258.5528869628907	1060.7734375	-1113.207275390625	-286.3873291015626	1104.820068359375	-836.0415649414065	-464.561248779297	1172.170288085938	-1004.752746582031	-469.3329162597657	1141.1259765625	-1031.907104492188	-479.8453063964845	1141.937866210938	-977.1585693359377	-322.8600158691407	852.276550292969	-1161.876220703125	-293.4430236816407	773.341247558594	-1157.577270507813	-244.1823883056641	776.1451416015627	-1152.531372070313	-321.0128173828126	722.5311889648439	-1138.003173828125	-293.4355163574219	575.1245727539064	-1111.504516601563	-285.2830810546876	558.4963989257814	-978.6188964843752	-271.4133911132813	352.9320983886719	-1034.993774414063	-301.3434753417969	306.9642944335938	-1107.000122070313	-273.1129455566407	304.5745544433594	-1069.9990234375	-284.9166259765626	227.4467163085938	-1037.987670898438	-352.5567626953126	111.214599609375	-1078.311645507813	-406.9029846191407	79.78711700439455	-1025.83740234375	-195.7908935546876	54.99288558959962	-1010.212463378906	-192.0455932617188	56.3785972595215	-1052.470825195313	-323.4656677246094	124.6390991210938	-994.546081542969	-346.7815246582032	764.6179809570314	-771.747009277344	-305.2885437011719	712.9987792968751	-762.2325439453126	-271.2086181640626	716.1522216796876	-763.9838867187501	-324.1090087890626	633.8231811523439	-778.511901855469	-317.8904724121094	569.1049804687501	-774.0268554687502	-277.2670288085938	547.0966796875001	-896.5020751953127	-276.7814941406251	428.1822509765626	-780.9515380859377	-351.3995361328126	357.5368957519532	-750.8585205078126	-308.1599426269532	347.8369750976563	-767.5925292968751	-304.8676147460938	302.0314941406251	-805.5134887695315	-393.0061950683595	130.8617401123047	-762.8247070312501	-358.3778381347657	133.2118377685547	-849.2256469726565	-454.7148742675782	99.71138000488284	-821.7966308593752	-232.9556884765626	65.59442138671876	-796.3892822265627	-240.6054382324219	65.58977508544923	-758.8781127929689	-264.5425720214844	45.15716171264649	-714.0189208984376	276.7097473144532	1571.698608398438	-875.0571899414065	
1817	9.08	-189.3764343261719	1826.182373046875	-994.3264160156252	-348.6816711425782	1768.87646484375	-1080.174926757813	-368.1561279296876	1760.3701171875	-937.108825683594	-431.4544677734376	1614.7333984375	-1023.572509765625	-451.8357543945314	1277.913696289063	-1012.833923339844	-271.9750061035157	1559.0390625	-1016.618041992188	-293.6036376953126	1599.559326171875	-1188.035522460938	-122.0355377197266	1540.777954101563	-1279.50439453125	-93.97801208496095	1569.395263671875	-1250.291015625	-53.66380691528322	1535.473022460938	-1280.760864257813	11.18159770965576	1541.220336914063	-1271.574829101563	11.90726470947266	1469.576782226563	-1245.1904296875	292.8167419433594	1556.883178710938	-1121.50048828125	303.3500061035157	1561.372314453125	-1200.662841796875	388.543426513672	1582.259887695313	-1119.885131835938	-292.3548278808594	1599.381103515625	-856.1492919921877	-138.0062561035157	1555.006103515625	-747.7554931640626	-110.6805801391602	1579.789794921875	-780.9680786132815	-67.97132110595705	1552.65185546875	-746.3197021484376	-2.093112230300904	1555.916137695313	-756.5635986328126	-0.6669598817825318	1481.523193359375	-783.2073974609377	292.2941284179688	1580.18994140625	-797.142028808594	370.7684326171876	1592.54736328125	-882.2631835937502	-259.0479736328126	1060.865478515625	-1112.48193359375	-286.9221496582032	1104.822875976563	-835.0930786132815	-465.0640258789064	1172.26708984375	-1004.105529785156	-469.9407958984376	1141.253784179688	-1031.132202148438	-480.362274169922	1142.13916015625	-976.4123535156252	-323.3054504394532	852.2760009765627	-1161.267944335938	-293.9672241210938	773.5393066406252	-1157.056640625	-244.5212402343751	776.352722167969	-1151.929443359375	-321.3800964355469	722.6704711914064	-1137.426513671875	-293.8147277832032	575.3996582031251	-1111.166259765625	-285.3711547851563	558.5877685546876	-978.2703857421877	-271.5452270507813	353.1249694824219	-1034.78125	-301.4932556152344	307.0148620605469	-1106.908813476563	-273.2402648925782	304.7578430175782	-1069.933959960938	-285.4971008300782	227.8914337158204	-1038.231567382813	-351.9654235839844	110.9037094116211	-1078.375732421875	-406.970428466797	79.75625610351564	-1025.871948242188	-195.8126678466797	55.06084060668947	-1010.286804199219	-191.9260406494141	56.29274749755861	-1052.452026367188	-323.4002990722657	124.6597061157227	-994.5886230468752	-348.7897949218751	764.7328491210939	-771.0798339843752	-307.1935119628907	713.3671875000001	-761.3874511718751	-273.1345214843751	716.1922607421876	-762.8670043945314	-326.2331542968751	634.0475463867189	-777.7329711914065	-319.5379333496094	569.3464355468751	-772.9388427734377	-279.5545959472657	547.4206542968751	-895.687683105469	-277.8210144042969	428.1698608398439	-780.3059692382815	-352.3860778808594	357.5564270019532	-750.0209960937501	-309.0312500000001	347.8300170898438	-766.9756469726564	-305.8296203613282	302.0820617675782	-804.880065917969	-393.3843383789064	130.6072998046875	-762.7210083007814	-358.6554870605469	133.3135986328125	-849.0107421875002	-454.7973022460939	99.67226409912112	-821.6942138671877	-233.0196838378907	65.68240356445314	-796.3537597656252	-240.6228332519532	65.56588745117189	-758.8037109375001	-264.5264282226563	45.14976119995118	-713.9575805664064	276.1025085449219	1570.1826171875	-873.8557128906252	
1818	9.085000000000001	-188.8796539306641	1825.83935546875	-993.3115844726565	-348.2312622070313	1768.94384765625	-1079.27490234375	-367.5053710937501	1761.273559570313	-935.8278808593752	-431.9266967773439	1615.221069335938	-1022.65087890625	-452.3058166503907	1278.266845703125	-1012.146118164063	-272.2863159179688	1559.119018554688	-1015.871704101563	-294.2744750976563	1599.473388671875	-1187.520263671875	-122.983139038086	1539.803588867188	-1279.1748046875	-95.26409912109376	1568.371459960938	-1250.06689453125	-54.01264953613283	1534.1123046875	-1280.255615234375	10.18936729431153	1539.487426757813	-1271.369262695313	10.87595081329346	1467.749267578125	-1244.333740234375	291.7202453613282	1554.608154296875	-1121.200439453125	302.9646911621094	1558.807861328125	-1200.221435546875	387.8060302734376	1579.591674804688	-1119.541015625	-292.7743530273438	1599.330810546875	-855.2416992187502	-138.4249114990235	1554.405883789063	-746.7349243164064	-111.1434707641602	1578.785034179688	-779.937194824219	-68.3868865966797	1551.562622070313	-745.1245117187501	-2.492484331130982	1554.3701171875	-755.2345581054689	-1.476542115211487	1480.217529296875	-782.0191040039065	292.1143493652344	1578.109497070313	-795.442810058594	370.1915283203126	1590.488525390625	-880.935729980469	-259.5794677734376	1060.830810546875	-1111.718994140625	-287.4146118164063	1104.974487304688	-834.2050781250002	-465.6515197753907	1172.538940429688	-1003.428955078125	-470.5769958496095	1141.279907226563	-1030.421997070313	-480.9146728515626	1142.32373046875	-975.8137817382815	-324.1971435546876	852.510925292969	-1160.759399414063	-294.3526306152344	773.4553833007815	-1156.09033203125	-245.2619171142579	776.8957519531252	-1151.398071289063	-321.5583496093751	722.7185058593751	-1136.989379882813	-293.9826660156251	575.5177612304689	-1110.692260742188	-285.5453186035157	558.6089477539064	-977.9537353515627	-271.5950012207032	353.1340637207032	-1034.573852539063	-301.6347045898438	307.0652770996094	-1106.788208007813	-273.3619079589844	304.9523925781251	-1069.88818359375	-285.5482788085938	227.9548797607422	-1038.159912109375	-352.6216430664063	111.357536315918	-1078.441528320313	-406.9966735839845	79.8267288208008	-1025.865356445313	-196.568099975586	55.2799530029297	-1010.633850097656	-191.9607696533203	56.40768051147462	-1052.51416015625	-323.3210754394532	124.6593780517578	-994.6083984375002	-350.4367065429688	765.2111206054689	-770.4324951171877	-308.8854980468751	713.5377197265626	-760.2639160156251	-274.8633117675782	716.5601806640626	-761.8522338867189	-328.1114501953126	634.3498535156251	-776.696716308594	-320.8404235839844	569.6175537109376	-771.7373657226565	-281.4483642578126	547.9731445312501	-894.8387451171877	-278.9691467285157	428.4163208007814	-779.6807861328127	-353.1950378417969	357.4598693847657	-749.2747192382814	-310.0103454589844	348.0348510742188	-766.3859863281251	-306.4531860351563	302.0610351562501	-804.4321899414065	-393.5953063964845	130.4926452636719	-762.6348876953126	-358.9175720214844	133.5691375732422	-848.9136962890627	-454.8251037597657	99.64441680908206	-821.7051391601565	-233.0936279296876	65.7144012451172	-796.3067016601565	-240.6551055908204	65.53704833984376	-758.8339233398439	-264.3720397949219	45.25701141357423	-714.0804443359376	275.7410278320313	1567.3134765625	-872.5083007812502	
1819	9.09	-187.901611328125	1824.383911132813	-992.2099609375002	-347.8538513183594	1769.258422851563	-1078.422973632813	-367.3489685058594	1761.779907226563	-935.1604003906252	-432.1763610839845	1615.4794921875	-1021.953674316406	-452.7236938476564	1278.55810546875	-1011.482543945313	-272.7032165527344	1559.25048828125	-1015.064819335938	-294.9621582031251	1599.192993164063	-1186.7607421875	-123.9033203125	1538.505737304688	-1278.548583984375	-94.87802886962892	1566.996948242188	-1249.398681640625	-55.41688537597658	1532.6640625	-1279.916625976563	10.00554466247559	1537.204833984375	-1270.7861328125	9.883902549743654	1465.956420898438	-1243.64599609375	290.6286010742188	1552.296752929688	-1120.908935546875	302.2012329101563	1556.074584960938	-1199.70068359375	386.2156982421876	1576.642333984375	-1118.657592773438	-293.1718750000001	1599.1796875	-854.3391113281252	-139.0708160400391	1552.986328125	-745.6281127929689	-111.4860076904297	1577.867919921875	-778.7950439453127	-68.90576171875001	1550.291015625	-744.0505371093751	-3.047570228576661	1552.881591796875	-753.8965454101564	-2.184804677963257	1478.645141601563	-781.115661621094	291.7678833007813	1575.810302734375	-794.1716918945315	369.6874084472657	1588.260131835938	-879.5096435546877	-260.0852661132813	1060.697143554688	-1110.832885742188	-287.8981628417969	1105.011474609375	-833.379333496094	-466.2234191894532	1172.847778320313	-1002.774108886719	-471.0866088867189	1141.501586914063	-1029.809814453125	-481.4595336914064	1142.691284179688	-975.1520996093752	-324.6116638183594	852.6015625000002	-1160.231079101563	-294.9513244628907	773.9241333007815	-1155.695190429688	-245.548324584961	776.5882568359377	-1150.662353515625	-321.6840209960938	722.6718750000001	-1136.509887695313	-294.2183227539063	575.4990234375001	-1110.178344726563	-285.7106018066407	558.7185668945314	-977.6235351562502	-271.9178161621094	353.1542358398438	-1034.410888671875	-301.7524719238282	307.1901550292969	-1106.678344726563	-273.5533447265626	305.1588439941407	-1069.796752929688	-285.1335449218751	227.6457214355469	-1037.790405273438	-351.9753417968751	111.1233596801758	-1078.440063476563	-406.9699707031251	79.93035125732423	-1025.850952148438	-196.5938262939454	55.32696914672853	-1010.603149414063	-191.9412078857422	56.3664016723633	-1052.54052734375	-323.2979431152344	124.7144851684571	-994.624694824219	-351.8976440429688	765.5180053710939	-769.3349609375002	-310.3040466308594	713.8229370117189	-759.2776489257814	-276.4352111816407	716.7172851562501	-760.8966674804689	-329.6857299804688	634.6827392578126	-775.4969482421877	-321.9535827636719	569.9434814453126	-770.6695556640627	-283.2662048339844	548.5396728515626	-893.962097167969	-280.0923461914063	428.9495239257814	-778.722106933594	-354.1228942871094	357.3178710937501	-748.6778564453126	-310.8269653320313	348.2976989746094	-765.7772216796876	-307.0484924316407	302.0348510742188	-803.8629150390627	-393.6456604003907	130.3596343994141	-762.5604858398439	-358.6482238769532	133.7243041992188	-848.7196044921877	-454.7815246582032	99.57971191406253	-821.694519042969	-233.0127410888672	65.72741699218751	-796.3359375000002	-240.6523895263672	65.46897125244142	-758.8252563476564	-264.4134521484376	45.12677383422852	-714.1496582031251	275.1246948242188	1565.909545898438	-871.3701171875002	
